<?xml version="1.0" standalone="no"?><!DOCTYPE svg PUBLIC "-//W3C//DTD SVG 1.1//EN" "http://www.w3.org/Graphics/SVG/1.1/DTD/svg11.dtd"><svg t="1709608952386" class="icon" viewBox="0 0 1024 1024" version="1.1" xmlns="http://www.w3.org/2000/svg" p-id="5457" xmlns:xlink="http://www.w3.org/1999/xlink" width="200" height="200"><path d="M512 128c212.064 0 384 171.936 384 384 0 133.6-68.224 251.264-171.712 320.032L864 832v64H512C299.936 896 128 724.064 128 512S299.936 128 512 128z m0 64C335.264 192 192 335.264 192 512s143.264 320 320 320 320-143.264 320-320S688.736 192 512 192z m0 384a96 96 0 1 1 0 192 96 96 0 0 1 0-192z m0 64a32 32 0 1 0 0 64 32 32 0 0 0 0-64z m-160-224a96 96 0 1 1 0 192 96 96 0 0 1 0-192z m320 0a96 96 0 1 1 0 192 96 96 0 0 1 0-192z m-320 64a32 32 0 1 0 0 64 32 32 0 0 0 0-64z m320 0a32 32 0 1 0 0 64 32 32 0 0 0 0-64z m-160-224a96 96 0 1 1 0 192 96 96 0 0 1 0-192z m0 64a32 32 0 1 0 0 64 32 32 0 0 0 0-64z" fill="#686C78" p-id="5458"></path></svg>